<?xml version="1.0" encoding="utf-8"?>
<!-- Generator: Adobe Illustrator 20.1.0, SVG Export Plug-In . SVG Version: 6.00 Build 0)  -->
<svg version="1.1" id="Layer_1" xmlns="http://www.w3.org/2000/svg" xmlns:xlink="http://www.w3.org/1999/xlink" x="0px" y="0px"
	 viewBox="0 0 40 20" style="enable-background:new 0 0 40 20;" xml:space="preserve">
<style type="text/css">
	.st0{fill:#E7E7E7;}
	.st1{fill:#FFFFFF;}
	.st2{fill:#F3F3F3;}
</style>
<g>
	<path class="st0" d="M31.4,19.1H8.6c-4.7,0-8.6-3.9-8.6-8.6V9.5c0-4.7,3.9-8.6,8.6-8.6l22.8,0c4.7,0,8.6,3.9,8.6,8.6v0.9
		C40,15.2,36.1,19.1,31.4,19.1z"/>
	<g>
		<path class="st1" d="M9.7,19.5c-5.1,0-9.2-4.3-9.2-9.5s4.1-9.5,9.2-9.5c5.1,0,9.2,4.3,9.2,9.5S14.8,19.5,9.7,19.5z"/>
		<path class="st2" d="M9.7,1c4.8,0,8.7,4,8.7,9s-3.9,9-8.7,9S1,14.9,1,10S4.9,1,9.7,1 M9.7,0C4.3,0,0,4.5,0,10s4.3,10,9.7,10
			s9.7-4.5,9.7-10S15.1,0,9.7,0L9.7,0z"/>
	</g>
</g>
</svg>
