<svg xmlns="http://www.w3.org/2000/svg" viewBox="0 0 60 60"><defs><style>.cls-1{fill:#fff;}.cls-2{fill:none;stroke:#52a6dc;stroke-linecap:round;stroke-miterlimit:10;stroke-width:2px;}</style></defs><title>Artboard 1 copy 2</title><g id="_link_button" data-name="#link_button"><circle class="cls-1" cx="30" cy="30" r="30"/><path class="cls-2" d="M30,21l5.26-5.26a5.31,5.31,0,0,1,7.51,0l1.5,1.5a5.31,5.31,0,0,1,0,7.51L36,33a5.31,5.31,0,0,1-7.51,0L27,31.5"/><path class="cls-2" d="M30,39l-5.26,5.26a5.31,5.31,0,0,1-7.51,0l-1.5-1.5a5.31,5.31,0,0,1,0-7.51L24,27a5.31,5.31,0,0,1,7.51,0L33,28.5"/></g></svg>