<svg xmlns="http://www.w3.org/2000/svg" viewBox="0 0 22 22"><defs><style>.cls-1{fill:none;stroke:#666766;stroke-linecap:round;stroke-linejoin:round;stroke-width:0.75px;}.cls-2{fill:#fff;opacity:0;}</style></defs><title>news_icon_blk</title><g id="Layer_2" data-name="Layer 2"><g id="_news_gray_row" data-name="#news_gray_row"><rect class="cls-1" x="5.64" y="4.29" width="7.33" height="3.94"/><line class="cls-1" x1="5.64" y1="10.69" x2="12.98" y2="10.69"/><line class="cls-1" x1="5.64" y1="13.15" x2="12.98" y2="13.15"/><line class="cls-1" x1="5.64" y1="15.61" x2="9.33" y2="15.61"/><path class="cls-1" d="M16.48,5.77h1.91a1.45,1.45,0,0,1,1.43,1.48v9.11a1.67,1.67,0,1,1-3.33,0V2.81A1.45,1.45,0,0,0,15,1.33H3.62A1.45,1.45,0,0,0,2.19,2.81V16.6a1.45,1.45,0,0,0,1.43,1.48H17.91"/><rect class="cls-2" width="22" height="22"/></g></g></svg>