<?xml version="1.0" encoding="utf-8"?>
<!-- Generator: Adobe Illustrator 20.1.0, SVG Export Plug-In . SVG Version: 6.00 Build 0)  -->
<svg version="1.1" id="Layer_1" xmlns="http://www.w3.org/2000/svg" xmlns:xlink="http://www.w3.org/1999/xlink" x="0px" y="0px"
	 viewBox="0 0 640 40" style="enable-background:new 0 0 640 40;" xml:space="preserve">
<style type="text/css">
	.st0{fill:#FFFFFF;}
	.st1{fill-rule:evenodd;clip-rule:evenodd;fill:#FFFFFF;}
	.st2{font-family:'HelveticaNeue';}
	.st3{font-size:24px;}
	.st4{font-family:'HelveticaNeue-Medium';}
</style>
<g>
	<g>
		<g>
			<path class="st0" d="M100.8,13c3.9,0,7.4,1.4,10.1,3.8l1.9-2.1c-3.2-2.8-7.4-4.8-12-4.8c-4.6,0-8.8,2-12,4.8l1.9,2.1
				C93.4,14.5,96.9,13,100.8,13z"/>
			<path class="st0" d="M100.8,19.1c2.3,0,4.4,0.9,6.1,2.3l2-2.2c-2.2-1.9-5-3.1-8.1-3.1c-3.1,0-5.9,1.2-8.1,3.1l2,2.2
				C96.4,20,98.5,19.1,100.8,19.1z"/>
			<path class="st0" d="M104.9,23.6c-1.1-0.9-2.5-1.6-4.1-1.6s-3,0.6-4.1,1.6l4.1,4.6L104.9,23.6z"/>
		</g>
		<path class="st1" d="M626.8,15.9c1.9,0,3,1.6,3,3.5s-1.1,3.5-3,3.5V15.9z"/>
		<path class="st0" d="M622.8,10.9c1.1,0,2,0.9,2,2v13c0,1.1-0.9,2-2,2h-39c-1.1,0-2-0.9-2-2v-13c0-1.1,0.9-2,2-2H622.8 M622.8,9.9
			h-39c-1.7,0-3,1.3-3,3v13c0,1.7,1.3,3,3,3h39c1.7,0,3-1.3,3-3v-13C625.8,11.3,624.5,9.9,622.8,9.9L622.8,9.9z"/>
		<path class="st1" d="M584.8,11.9h37c1.1,0,2,0.9,2,2v11c0,1.1-0.9,2-2,2h-37c-1.1,0-2-0.9-2-2v-11
			C582.8,12.8,583.7,11.9,584.8,11.9z"/>
		<path class="st1" d="M19.3,13.9c3,0,5.5,2.5,5.5,5.5s-2.5,5.5-5.5,5.5c-3,0-5.5-2.5-5.5-5.5S16.3,13.9,19.3,13.9z"/>
		<path class="st1" d="M33.3,13.9c3,0,5.5,2.5,5.5,5.5s-2.5,5.5-5.5,5.5c-3,0-5.5-2.5-5.5-5.5S30.3,13.9,33.3,13.9z"/>
		<path class="st1" d="M47.3,13.9c3,0,5.5,2.5,5.5,5.5s-2.5,5.5-5.5,5.5c-3,0-5.5-2.5-5.5-5.5S44.3,13.9,47.3,13.9z"/>
		<path class="st0" d="M61.3,13.9c-3,0-5.5,2.5-5.5,5.5s2.5,5.5,5.5,5.5c3,0,5.5-2.5,5.5-5.5S64.3,13.9,61.3,13.9L61.3,13.9z"/>
		<path class="st0" d="M75.3,13.9c-3,0-5.5,2.5-5.5,5.5s2.5,5.5,5.5,5.5c3,0,5.5-2.5,5.5-5.5S78.3,13.9,75.3,13.9L75.3,13.9z"/>
		<text transform="matrix(1 0 0 1 510.1084 27.5144)" class="st0 st2 st3">100%</text>
		<text transform="matrix(1 0 0 1 275.0166 27.5144)" class="st0 st4 st3">4:20 PM</text>
	</g>
</g>
</svg>
