<?xml version="1.0" encoding="utf-8"?>
<!-- Generator: Adobe Illustrator 20.1.0, SVG Export Plug-In . SVG Version: 6.00 Build 0)  -->
<svg version="1.1" id="Layer_1" xmlns="http://www.w3.org/2000/svg" xmlns:xlink="http://www.w3.org/1999/xlink" x="0px" y="0px"
	 viewBox="0 0 640 98" style="enable-background:new 0 0 640 98;" xml:space="preserve">
<style type="text/css">
	.st0{opacity:0.9;fill:none;}
	.st1{fill:#51A6DC;}
	.st2{fill:#52A6DC;}
	.st3{font-family:'Roboto-Regular';}
	.st4{font-size:20px;}
	.st5{fill:none;stroke:#51A6DC;stroke-width:2;stroke-linecap:round;stroke-linejoin:round;stroke-miterlimit:10;}
	.st6{fill:none;stroke:#FFFFFF;stroke-width:1.5781;stroke-linecap:round;stroke-miterlimit:10;}
	.st7{fill:#FFFFFF;stroke:#FFFFFF;stroke-width:1.5781;stroke-linecap:round;stroke-miterlimit:10;}
	.st8{fill:#FFFFFF;}
	.st9{fill:#69BD46;}
	.st10{fill:#003049;}
	.st11{font-family:'Roboto-Bold';}
	.st12{font-size:16px;}
</style>
<g>
	<rect class="st0" width="640" height="98"/>
	<g>
		<g>
			<g>
				<path class="st1" d="M188.7,16.9c0.3,0,0.5,0.2,0.5,0.5v11c0,0.3-0.2,0.5-0.5,0.5h-11.3c-0.3,0-0.5-0.2-0.5-0.5v-11
					c0-0.3,0.2-0.5,0.5-0.5H188.7 M188.7,14.9h-11.3c-1.4,0-2.5,1.1-2.5,2.5v11c0,1.4,1.1,2.5,2.5,2.5h11.3c1.4,0,2.5-1.1,2.5-2.5
					v-11C191.2,16,190.1,14.9,188.7,14.9L188.7,14.9z"/>
			</g>
			<g>
				<path class="st1" d="M210.5,16.9c0.3,0,0.5,0.2,0.5,0.5v11c0,0.3-0.2,0.5-0.5,0.5h-11.3c-0.3,0-0.5-0.2-0.5-0.5v-11
					c0-0.3,0.2-0.5,0.5-0.5H210.5 M210.5,14.9h-11.3c-1.4,0-2.5,1.1-2.5,2.5v11c0,1.4,1.1,2.5,2.5,2.5h11.3c1.4,0,2.5-1.1,2.5-2.5
					v-11C212.9,16,211.8,14.9,210.5,14.9L210.5,14.9z"/>
			</g>
			<g>
				<path class="st1" d="M188.7,38.9c0.3,0,0.5,0.2,0.5,0.5v11c0,0.3-0.2,0.5-0.5,0.5h-11.3c-0.3,0-0.5-0.2-0.5-0.5v-11
					c0-0.3,0.2-0.5,0.5-0.5H188.7 M188.7,36.9h-11.3c-1.4,0-2.5,1.1-2.5,2.5v11c0,1.4,1.1,2.5,2.5,2.5h11.3c1.4,0,2.5-1.1,2.5-2.5
					v-11C191.2,38,190.1,36.9,188.7,36.9L188.7,36.9z"/>
			</g>
			<g>
				<path class="st1" d="M210.5,38.9c0.3,0,0.5,0.2,0.5,0.5v11c0,0.3-0.2,0.5-0.5,0.5h-11.3c-0.3,0-0.5-0.2-0.5-0.5v-11
					c0-0.3,0.2-0.5,0.5-0.5H210.5 M210.5,36.9h-11.3c-1.4,0-2.5,1.1-2.5,2.5v11c0,1.4,1.1,2.5,2.5,2.5h11.3c1.4,0,2.5-1.1,2.5-2.5
					v-11C212.9,38,211.8,36.9,210.5,36.9L210.5,36.9z"/>
			</g>
		</g>
		<text transform="matrix(1 0 0 1 157.2887 82.687)" class="st2 st3 st4">Benefits</text>
	</g>
	<g>
		<g>
			<g>
				<path class="st1" d="M322.5,13.1l5,14.5l0.3,0.9l0.9,0.3l14.5,5l-14.5,5l-0.9,0.3l-0.3,0.9l-5,14.5l-5-14.5l-0.3-0.9l-0.9-0.3
					l-14.5-5l14.5-5l0.9-0.3l0.3-0.9L322.5,13.1 M322.5,9.9c-0.5,0-1,0.3-1.3,0.8L315.7,27l-16.3,5.6c-1.1,0.5-1.1,2,0,2.6l16.3,5.6
					l5.6,16.3c0.3,0.5,0.8,0.8,1.3,0.8c0.5,0,1-0.3,1.3-0.8l5.6-16.3l16.3-5.6c1.1-0.5,1.1-2,0-2.6L329.4,27l-5.6-16.3
					C323.6,10.1,323.1,9.9,322.5,9.9L322.5,9.9z"/>
			</g>
		</g>
		<text transform="matrix(1 0 0 1 291.7536 82.687)" class="st2 st3 st4">Search</text>
	</g>
	<g>
		<g>
			<path class="st5" d="M466.1,51.9c1.2,1.3,2.9,2.1,4.8,2.1c1.3,0,2.5-0.4,3.4-1c-2-1.1-3.4-3-3.8-5.3c1.6-2.3,2.5-5,2.5-7.9
				c0-7.9-6.5-14.3-14.5-14.3c-8,0-14.5,6.4-14.5,14.3S450.5,54,458.5,54C461.3,54,463.9,53.2,466.1,51.9z"/>
			<path class="st5" d="M440.6,38.7c-2.8-0.4-4-1.5-5.1-2.1c-1.1,1.2-2.6,1.9-4.4,1.9c-1.2,0-2.3-0.3-3.2-0.9c1.8-1,3.1-2.8,3.5-4.9
				c-1.4-2.1-2.2-4.6-2.2-7.3c0-7.2,6-13.1,13.3-13.1c6.1,0,11.3,4.1,12.8,9.6"/>
			<g>
				<circle class="st1" cx="442.2" cy="30.8" r="0.8"/>
				<path class="st5" d="M442.2,27.6c0-0.5-0.1-1.7,1.3-2.6c1.5-0.9,1.4-2.1,1.4-2.6c0-0.8-0.7-2.6-2.7-2.6c-2.2,0-2.8,2-2.8,2.8"/>
			</g>
			<g>
				<circle class="st1" cx="452" cy="39.9" r="1.8"/>
				<circle class="st1" cx="458.4" cy="39.9" r="1.8"/>
				<circle class="st1" cx="464.8" cy="39.9" r="1.8"/>
			</g>
		</g>
		<text transform="matrix(1 0 0 1 426.6432 82.687)" class="st2 st3 st4">Inbox</text>
	</g>
	<g>
		<g>
			<g>
				<g>
					<path class="st1" d="M565.8,30.7c2.2,0,4,1.8,4,4s-1.8,4-4,4s-4-1.8-4-4S563.5,30.7,565.8,30.7 M565.8,28.7c-3.3,0-6,2.7-6,6
						s2.7,6,6,6s6-2.7,6-6S569.1,28.7,565.8,28.7L565.8,28.7z"/>
				</g>
			</g>
			<g>
				<g>
					<path class="st1" d="M581.8,30.7c2.2,0,4,1.8,4,4s-1.8,4-4,4s-4-1.8-4-4S579.5,30.7,581.8,30.7 M581.8,28.7c-3.3,0-6,2.7-6,6
						s2.7,6,6,6s6-2.7,6-6S585.1,28.7,581.8,28.7L581.8,28.7z"/>
				</g>
			</g>
			<g>
				<g>
					<path class="st1" d="M597.8,30.7c2.2,0,4,1.8,4,4s-1.8,4-4,4s-4-1.8-4-4S595.5,30.7,597.8,30.7 M597.8,28.7c-3.3,0-6,2.7-6,6
						s2.7,6,6,6s6-2.7,6-6S601.1,28.7,597.8,28.7L597.8,28.7z"/>
				</g>
			</g>
		</g>
		<text transform="matrix(1 0 0 1 558.6344 82.687)" class="st2 st3 st4">More</text>
	</g>
	<g>
		<g>
			<path class="st6" d="M80.5,22.9h-26c-0.6,0-1.1-0.5-1.1-1.1v-6.4c0-0.6,0.5-1.1,1.1-1.1h26c0.6,0,1.1,0.5,1.1,1.1v6.4
				C81.6,22.4,81.1,22.9,80.5,22.9z"/>
			<path class="st7" d="M80.5,51.2h-26c-0.6,0-1.1-0.5-1.1-1.1v-6.4c0-0.6,0.5-1.1,1.1-1.1h26c0.6,0,1.1,0.5,1.1,1.1V50
				C81.6,50.7,81.1,51.2,80.5,51.2z"/>
			<path class="st7" d="M80.5,36.9h-26c-0.6,0-1.1-0.5-1.1-1.1v-6.4c0-0.6,0.5-1.1,1.1-1.1h26c0.6,0,1.1,0.5,1.1,1.1v6.4
				C81.6,36.4,81.1,36.9,80.5,36.9z"/>
			<line class="st6" x1="43.6" y1="13.6" x2="43.6" y2="51.6"/>
			<line class="st6" x1="43.6" y1="18.8" x2="53.3" y2="18.8"/>
			<line class="st6" x1="43.6" y1="32.6" x2="53.3" y2="32.6"/>
			<line class="st6" x1="43.6" y1="46.8" x2="53.3" y2="46.8"/>
		</g>
		<text transform="matrix(1 0 0 1 27.2243 82.6861)" class="st8 st3 st4">Timeline</text>
		<g>
			<circle class="st9" cx="43.3" cy="42.4" r="15.4"/>
			<text transform="matrix(1 0 0 1 38.737 47.4492)" class="st10 st11 st12">8</text>
		</g>
	</g>
</g>
</svg>
